<svg xmlns="http://www.w3.org/2000/svg" viewBox="108.615 123.138 157.295 185.129">
  <defs>
    <style>
      .cls-1, .cls-3 {
        fill: #49a0d5;
      }

      .cls-1 {
        font-size: 32px;
        font-family: Roboto-Bold, Roboto;
        font-weight: 700;
      }

      .cls-2 {
        fill: #fff;
      }
    </style>
  </defs>
  <g id="logo-group" transform="translate(75.515 91.038)">
    <g id="logo" transform="translate(33.1 32.1)">
      <text id="TTennis" class="cls-1" transform="translate(17.309 177.129)"><tspan x="0" y="0">TT</tspan><tspan class="cls-2" y="0">ennis</tspan></text>
      <path id="Path_1291" data-name="Path 1291" class="cls-3" d="M238.289,266.359a2.038,2.038,0,0,1-1.874-1.229l-11.092-25.5c-19.7,3.872-39.852-7.282-48.425-27.009-9.894-22.768-.553-48.855,20.833-58.165a40.782,40.782,0,0,1,32.755.215,45.144,45.144,0,0,1,15.732,11.369c.184-.953.4-1.874.615-2.8a46.772,46.772,0,0,1,13.12-22.461,9.137,9.137,0,0,1-1.844-5.531,9.248,9.248,0,0,1,17.545-4.087,40.179,40.179,0,0,1,23.291-1.045c22.584,5.777,35.95,30.051,29.8,54.11-5.346,20.833-23.506,35.028-43.54,34.352l-6.852,26.947A2.056,2.056,0,0,1,275.867,247l-12.813-3.288a2.056,2.056,0,0,1-1.475-2.489l6.913-26.947a40.407,40.407,0,0,1-10.816-8.02,41.982,41.982,0,0,1-16.5,26.486l11.092,25.534a2.122,2.122,0,0,1,.031,1.567,2,2,0,0,1-1.076,1.106l-12.106,5.254A1.985,1.985,0,0,1,238.289,266.359Zm-12.229-35.3,13.3,30.6L247.753,258l-10.877-25.073c-.031-.031-.031-.092-.061-.123l-2.366-5.408Zm40.006,9.218,8.849,2.274,6.791-26.517c0-.031,0-.031.031-.061l1.475-5.715-8.849-2.274Zm-62.959-6.852a37.487,37.487,0,0,0,20.556,2.366l-2.182-4.978a2.018,2.018,0,0,1,1.045-2.673l12.106-5.254a3.724,3.724,0,0,1,.553-.154,1.985,1.985,0,0,1,2.12,1.2l2.182,4.978a37.34,37.34,0,0,0,12.291-16.623Zm10.631-78.23a35.748,35.748,0,0,0-14.349,2.98c-19.358,8.419-27.746,32.109-18.743,52.819a42.857,42.857,0,0,0,17.7,20.1l55-23.905a40.078,40.078,0,0,0,.86-5.439,1.018,1.018,0,0,1,0-.43,43.048,43.048,0,0,0-2.243-17.606c-.369-1.076-.768-2.12-1.229-3.165h0c-.4-.891-.8-1.751-1.229-2.612a48.664,48.664,0,0,0-3.564-5.777.5.5,0,0,1-.123-.215,41.6,41.6,0,0,0-16.93-13.551A38.432,38.432,0,0,0,213.738,155.19Zm72.546,59.333h.338a37.555,37.555,0,0,0,19.573-5.592L258.445,196.7c.031,1.413,0,2.827-.092,4.21a37.453,37.453,0,0,0,11.185,9.341L270.89,205v-.061h0a1.969,1.969,0,0,1,.8-1.106h0a.16.16,0,0,1,.123-.061c.031-.031.061-.031.123-.061h0a1.947,1.947,0,0,1,1.383-.154h.031l12.813,3.288a1.543,1.543,0,0,1,.4.154,2.141,2.141,0,0,1,.86.8,1.928,1.928,0,0,1,.215,1.536ZM258.138,192.4l52.42,13.428a42.741,42.741,0,0,0,14.288-22.646c5.592-21.877-6.453-43.939-26.855-49.163a35.894,35.894,0,0,0-21.324,1.075v.123a9.258,9.258,0,0,1-9.249,9.249,9.108,9.108,0,0,1-3.626-.738,4.625,4.625,0,0,1-.676-.338,42.844,42.844,0,0,0-12.291,20.833,40.843,40.843,0,0,0-1.106,6.145,49.2,49.2,0,0,1,3.472,5.746c.461.922.922,1.844,1.321,2.8a34.192,34.192,0,0,1,1.29,3.349A47.91,47.91,0,0,1,258.138,192.4Zm6.514-52.758a5.2,5.2,0,1,0-2.458-4.425,5.222,5.222,0,0,0,1.874,3.995c.031.031.061.031.092.061C264.314,139.4,264.468,139.52,264.652,139.643Zm-41.727,37.978a9.249,9.249,0,1,1,9.249-9.249A9.258,9.258,0,0,1,222.925,177.621Zm0-14.472a5.193,5.193,0,1,0,5.193,5.193A5.206,5.206,0,0,0,222.925,163.149Z" transform="translate(-172.948 -126)"/>
    </g>
  </g>
</svg>
