<svg xmlns="http://www.w3.org/2000/svg" viewBox="510.176 56.15 146.791 42.093">
  <defs>
    <style>
      .cls-1, .cls-3 {
        fill: #49a0d5;
      }

      .cls-1 {
        font-size: 24px;
        font-family: Roboto-Bold, Roboto;
        font-weight: 700;
      }

      .cls-2 {
        fill: #fff;
      }
    </style>
  </defs>
  <g id="logo" transform="translate(405)">
    <text id="TTennis" class="cls-1" transform="translate(163.967 83.384)"><tspan x="0" y="0">TT</tspan><tspan class="cls-2" y="0">ennis</tspan></text>
    <path id="Path_1291" data-name="Path 1291" class="cls-3" d="M193.955,168.093a.659.659,0,0,1-.6-.369l-3.566-7.648a14.435,14.435,0,0,1-15.569-8.1,12.772,12.772,0,0,1,6.7-17.444,13.979,13.979,0,0,1,10.531.064,14.522,14.522,0,0,1,5.058,3.409c.059-.286.128-.562.2-.839a13.855,13.855,0,0,1,4.218-6.736,2.622,2.622,0,0,1-.593-1.659A2.882,2.882,0,0,1,203.3,126a3.012,3.012,0,0,1,2.667,1.548,13.8,13.8,0,0,1,7.488-.313,13.035,13.035,0,0,1,9.582,16.227,14.1,14.1,0,0,1-14,10.3l-2.2,8.081a.666.666,0,0,1-.8.442l-4.119-.986a.615.615,0,0,1-.474-.746l2.223-8.081a12.972,12.972,0,0,1-3.477-2.405,12.511,12.511,0,0,1-5.3,7.943l3.566,7.658a.6.6,0,0,1,.01.47.621.621,0,0,1-.346.332l-3.892,1.576A.68.68,0,0,1,193.955,168.093Zm-3.932-10.588,4.278,9.178,2.7-1.1-3.5-7.519c-.01-.009-.01-.028-.02-.037l-.761-1.622Zm12.862,2.764,2.845.682L207.914,153c0-.009,0-.009.01-.018l.474-1.714-2.845-.682Zm-20.242-2.055a12.856,12.856,0,0,0,6.609.71l-.7-1.493a.591.591,0,0,1,.336-.8l3.892-1.576a1.263,1.263,0,0,1,.178-.046.647.647,0,0,1,.682.359l.7,1.493a11.289,11.289,0,0,0,3.952-4.985Zm3.418-23.461a12.207,12.207,0,0,0-4.613.894,11.58,11.58,0,0,0-6.026,15.84,13.19,13.19,0,0,0,5.69,6.026l17.683-7.169a11.266,11.266,0,0,0,.277-1.631.287.287,0,0,1,0-.129,12.1,12.1,0,0,0-.721-5.28c-.119-.323-.247-.636-.4-.949h0c-.128-.267-.257-.525-.4-.783a14.46,14.46,0,0,0-1.146-1.732.147.147,0,0,1-.04-.064,13.268,13.268,0,0,0-10.314-5.022Zm23.324,17.794h.109a12.726,12.726,0,0,0,6.293-1.677L200.436,147.2c.01.424,0,.848-.03,1.262a11.887,11.887,0,0,0,3.6,2.8l.435-1.576v-.018h0a.6.6,0,0,1,.257-.332h0a.053.053,0,0,1,.04-.018c.01-.009.02-.009.04-.018h0a.667.667,0,0,1,.445-.046h.01l4.119.986a.518.518,0,0,1,.128.046.673.673,0,0,1,.277.24.545.545,0,0,1,.069.461Zm-9.049-6.635,16.853,4.027a12.75,12.75,0,0,0,4.594-6.791,11.82,11.82,0,0,0-8.634-14.744,12.329,12.329,0,0,0-6.856.323v.037a2.882,2.882,0,0,1-2.974,2.774,3.111,3.111,0,0,1-1.166-.221,1.53,1.53,0,0,1-.217-.1,12.7,12.7,0,0,0-3.952,6.248,11.5,11.5,0,0,0-.356,1.843,14.6,14.6,0,0,1,1.116,1.723c.148.276.3.553.425.839a9.844,9.844,0,0,1,.415,1A13.557,13.557,0,0,1,200.337,145.913Zm2.094-15.822a1.748,1.748,0,0,0,.879.23,1.561,1.561,0,1,0-1.67-1.557,1.527,1.527,0,0,0,.6,1.2c.01.009.02.009.03.018C202.323,130.018,202.372,130.055,202.432,130.091Zm-13.415,11.39a2.78,2.78,0,1,1,2.973-2.774A2.882,2.882,0,0,1,189.016,141.481Zm0-4.34a1.561,1.561,0,1,0,1.67,1.557A1.62,1.62,0,0,0,189.016,137.141Z" transform="translate(-67.771 -69.85)"/>
  </g>
</svg>
